<svg data-v-fde0c5aa="" xmlns="http://www.w3.org/2000/svg" viewBox="0 0 300 300"             preserveAspectRatio="none"
class="iconAbove"><!----><defs data-v-fde0c5aa=""><!----></defs><rect data-v-fde0c5aa="" fill="#A3BC8B" x="0" y="0" width="300px" height="300px" class="logo-background-square"></rect><defs data-v-fde0c5aa=""><!----></defs><g data-v-fde0c5aa="" id="b40501d7-a529-4e21-ad5d-4bde88081bc4" fill="#1C484D" transform="matrix(4.410517330535069,0,0,4.410517330535069,21.411365645668404,159.08821026248677)"><path d="M10.91 5.04L10.91 5.04Q11.48 5.04 11.48 5.40L11.48 5.40L11.48 5.40Q11.48 5.50 11.47 5.54L11.47 5.54L11.47 5.54Q11.42 5.68 11.34 5.76L11.34 5.76L11.34 5.76Q11.26 5.84 11.10 5.94L11.10 5.94L11.10 5.94Q10.89 6.06 10.75 6.22L10.75 6.22L10.75 6.22Q10.61 6.37 10.51 6.69L10.51 6.69L8.78 12.91L8.78 12.91Q8.54 13.75 8.18 14.08L8.18 14.08L8.18 14.08Q7.83 14.42 7.20 14.42L7.20 14.42L7.20 14.42Q6.64 14.42 6.27 14.09L6.27 14.09L6.27 14.09Q5.89 13.76 5.57 13.08L5.57 13.08L3.46 8.62L2.28 12.71L2.28 12.71Q2.24 12.89 2.24 13.03L2.24 13.03L2.24 13.03Q2.24 13.22 2.30 13.34L2.30 13.34L2.30 13.34Q2.37 13.45 2.48 13.58L2.48 13.58L2.48 13.58Q2.63 13.76 2.63 13.89L2.63 13.89L2.63 13.89Q2.63 13.97 2.62 14.01L2.62 14.01L2.62 14.01Q2.56 14.21 2.37 14.29L2.37 14.29L2.37 14.29Q2.17 14.36 1.78 14.36L1.78 14.36L0.25 14.36L0.25 14.36Q-0.32 14.36-0.32 14L-0.32 14L-0.32 14Q-0.32 13.90-0.31 13.86L-0.31 13.86L-0.31 13.86Q-0.27 13.72-0.18 13.64L-0.18 13.64L-0.18 13.64Q-0.10 13.57 0.06 13.47L0.06 13.47L0.06 13.47Q0.27 13.34 0.41 13.19L0.41 13.19L0.41 13.19Q0.55 13.03 0.64 12.71L0.64 12.71L2.42 6.43L2.20 5.96L2.20 5.96Q2.06 5.68 2.06 5.47L2.06 5.47L2.06 5.47Q2.06 5.04 2.62 5.04L2.62 5.04L4.69 5.04L4.69 5.04Q5.14 5.04 5.37 5.24L5.37 5.24L5.37 5.24Q5.60 5.45 5.87 5.96L5.87 5.96L7.91 10.07L8.88 6.69L8.88 6.69Q8.92 6.50 8.92 6.37L8.92 6.37L8.92 6.37Q8.92 6.19 8.86 6.07L8.86 6.07L8.86 6.07Q8.79 5.95 8.68 5.82L8.68 5.82L8.68 5.82Q8.53 5.64 8.53 5.52L8.53 5.52L8.53 5.52Q8.53 5.43 8.54 5.39L8.54 5.39L8.54 5.39Q8.60 5.19 8.79 5.12L8.79 5.12L8.79 5.12Q8.99 5.04 9.38 5.04L9.38 5.04L10.91 5.04ZM16.81 5.04L16.81 5.04Q17.11 5.04 17.27 5.13L17.27 5.13L17.27 5.13Q17.43 5.22 17.43 5.39L17.43 5.39L17.43 5.39Q17.43 5.46 17.39 5.57L17.39 5.57L17.39 5.57Q17.35 5.67 17.27 5.75L17.27 5.75L17.27 5.75Q17.19 5.82 17.13 5.86L17.13 5.86L17.13 5.86Q17.07 5.89 17.04 5.92L17.04 5.92L17.04 5.92Q16.81 6.05 16.67 6.20L16.67 6.20L16.67 6.20Q16.53 6.36 16.44 6.68L16.44 6.68L14.74 12.71L14.74 12.71Q14.69 12.89 14.69 13.06L14.69 13.06L14.69 13.06Q14.69 13.23 14.74 13.34L14.74 13.34L14.74 13.34Q14.78 13.45 14.88 13.58L14.88 13.58L14.88 13.58Q15.01 13.76 15.01 13.87L15.01 13.87L15.01 13.87Q15.01 13.90 14.98 14.01L14.98 14.01L14.98 14.01Q14.92 14.21 14.73 14.29L14.73 14.29L14.73 14.29Q14.53 14.36 14.14 14.36L14.14 14.36L10.85 14.36L10.85 14.36Q10.56 14.36 10.40 14.27L10.40 14.27L10.40 14.27Q10.23 14.17 10.23 14L10.23 14L10.23 14Q10.23 13.92 10.28 13.82L10.28 13.82L10.28 13.82Q10.33 13.66 10.46 13.58L10.46 13.58L10.46 13.58Q10.58 13.50 10.61 13.48L10.61 13.48L10.61 13.48Q10.84 13.34 10.98 13.20L10.98 13.20L10.98 13.20Q11.12 13.05 11.21 12.71L11.21 12.71L12.92 6.68L12.92 6.68Q12.98 6.50 12.98 6.33L12.98 6.33L12.98 6.33Q12.98 6.17 12.93 6.07L12.93 6.07L12.93 6.07Q12.88 5.96 12.80 5.82L12.80 5.82L12.80 5.82Q12.67 5.64 12.67 5.53L12.67 5.53L12.67 5.53Q12.67 5.49 12.70 5.38L12.70 5.38L12.70 5.38Q12.75 5.19 12.94 5.12L12.94 5.12L12.94 5.12Q13.13 5.04 13.52 5.04L13.52 5.04L16.81 5.04ZM26.95 7.88L26.95 7.88Q26.73 8.69 26.11 9.15L26.11 9.15L26.11 9.15Q25.49 9.60 24.56 9.72L24.56 9.72L24.56 9.72Q25.23 9.77 25.56 10.11L25.56 10.11L25.56 10.11Q25.90 10.44 25.90 10.99L25.90 10.99L25.90 10.99Q25.90 11.20 25.83 11.51L25.83 11.51L25.68 12.19L25.68 12.19Q25.65 12.33 25.65 12.39L25.65 12.39L25.65 12.39Q25.65 12.57 25.73 12.66L25.73 12.66L25.73 12.66Q25.82 12.75 25.97 12.75L25.97 12.75L25.97 12.75Q26.26 12.75 26.40 12.84L26.40 12.84L26.40 12.84Q26.53 12.92 26.49 13.15L26.49 13.15L26.49 13.15Q26.43 13.47 26.15 13.78L26.15 13.78L26.15 13.78Q25.87 14.08 25.36 14.29L25.36 14.29L25.36 14.29Q24.85 14.49 24.12 14.49L24.12 14.49L24.12 14.49Q23.20 14.49 22.65 14.08L22.65 14.08L22.65 14.08Q22.11 13.66 22.11 12.89L22.11 12.89L22.11 12.89Q22.11 12.60 22.19 12.26L22.19 12.26L22.41 11.37L22.41 11.37Q22.47 11.19 22.47 10.99L22.47 10.99L22.47 10.99Q22.47 10.67 22.25 10.53L22.25 10.53L22.25 10.53Q22.04 10.39 21.56 10.39L21.56 10.39L21.03 10.39L20.38 12.71L20.38 12.71Q20.36 12.80 20.36 12.92L20.36 12.92L20.36 12.92Q20.36 13.12 20.45 13.26L20.45 13.26L20.45 13.26Q20.55 13.40 20.72 13.55L20.72 13.55L20.72 13.55Q20.85 13.65 20.92 13.74L20.92 13.74L20.92 13.74Q20.99 13.83 20.99 13.93L20.99 13.93L20.99 13.93Q20.99 14.17 20.76 14.27L20.76 14.27L20.76 14.27Q20.54 14.36 20.10 14.36L20.10 14.36L16.59 14.36L16.59 14.36Q16.23 14.36 16.04 14.23L16.04 14.23L16.04 14.23Q15.86 14.10 15.92 13.86L15.92 13.86L15.92 13.86Q15.95 13.73 16.02 13.66L16.02 13.66L16.02 13.66Q16.10 13.58 16.25 13.48L16.25 13.48L16.25 13.48Q16.49 13.34 16.63 13.19L16.63 13.19L16.63 13.19Q16.77 13.03 16.86 12.71L16.86 12.71L18.56 6.68L18.56 6.68Q18.62 6.50 18.62 6.33L18.62 6.33L18.62 6.33Q18.62 6.17 18.57 6.07L18.57 6.07L18.57 6.07Q18.52 5.96 18.44 5.82L18.44 5.82L18.44 5.82Q18.31 5.64 18.31 5.53L18.31 5.53L18.31 5.53Q18.31 5.49 18.34 5.38L18.34 5.38L18.34 5.38Q18.40 5.19 18.59 5.12L18.59 5.12L18.59 5.12Q18.77 5.04 19.17 5.04L19.17 5.04L23.86 5.04L23.86 5.04Q24.82 5.04 25.54 5.33L25.54 5.33L25.54 5.33Q26.26 5.63 26.65 6.14L26.65 6.14L26.65 6.14Q27.03 6.65 27.03 7.29L27.03 7.29L27.03 7.29Q27.03 7.59 26.95 7.88L26.95 7.88ZM23.37 7.74L23.37 7.74Q23.44 7.42 23.44 7.25L23.44 7.25L23.44 7.25Q23.44 6.51 22.62 6.51L22.62 6.51L22.04 6.51L21.42 8.99L22.01 8.99L22.01 8.99Q22.55 8.99 22.87 8.72L22.87 8.72L22.87 8.72Q23.18 8.46 23.37 7.74L23.37 7.74ZM37.79 5.04L37.79 5.04Q38.36 5.04 38.36 5.40L38.36 5.40L38.36 5.40Q38.36 5.50 38.35 5.54L38.35 5.54L38.35 5.54Q38.30 5.68 38.22 5.76L38.22 5.76L38.22 5.76Q38.14 5.84 37.98 5.94L37.98 5.94L37.98 5.94Q37.77 6.06 37.63 6.22L37.63 6.22L37.63 6.22Q37.49 6.37 37.39 6.69L37.39 6.69L35.66 12.91L35.66 12.91Q35.42 13.75 35.06 14.08L35.06 14.08L35.06 14.08Q34.71 14.42 34.08 14.42L34.08 14.42L34.08 14.42Q33.52 14.42 33.15 14.09L33.15 14.09L33.15 14.09Q32.77 13.76 32.45 13.08L32.45 13.08L30.34 8.62L29.16 12.71L29.16 12.71Q29.12 12.89 29.12 13.03L29.12 13.03L29.12 13.03Q29.12 13.22 29.18 13.34L29.18 13.34L29.18 13.34Q29.25 13.45 29.36 13.58L29.36 13.58L29.36 13.58Q29.51 13.76 29.51 13.89L29.51 13.89L29.51 13.89Q29.51 13.97 29.50 14.01L29.50 14.01L29.50 14.01Q29.44 14.21 29.25 14.29L29.25 14.29L29.25 14.29Q29.05 14.36 28.66 14.36L28.66 14.36L27.13 14.36L27.13 14.36Q26.56 14.36 26.56 14L26.56 14L26.56 14Q26.56 13.90 26.57 13.86L26.57 13.86L26.57 13.86Q26.61 13.72 26.70 13.64L26.70 13.64L26.70 13.64Q26.78 13.57 26.94 13.47L26.94 13.47L26.94 13.47Q27.15 13.34 27.29 13.19L27.29 13.19L27.29 13.19Q27.43 13.03 27.52 12.71L27.52 12.71L29.30 6.43L29.08 5.96L29.08 5.96Q28.94 5.68 28.94 5.47L28.94 5.47L28.94 5.47Q28.94 5.04 29.50 5.04L29.50 5.04L31.57 5.04L31.57 5.04Q32.02 5.04 32.25 5.24L32.25 5.24L32.25 5.24Q32.48 5.45 32.75 5.96L32.75 5.96L34.79 10.07L35.76 6.69L35.76 6.69Q35.80 6.50 35.80 6.37L35.80 6.37L35.80 6.37Q35.80 6.19 35.73 6.07L35.73 6.07L35.73 6.07Q35.67 5.95 35.56 5.82L35.56 5.82L35.56 5.82Q35.41 5.64 35.41 5.52L35.41 5.52L35.41 5.52Q35.41 5.43 35.42 5.39L35.42 5.39L35.42 5.39Q35.48 5.19 35.67 5.12L35.67 5.12L35.67 5.12Q35.87 5.04 36.26 5.04L36.26 5.04L37.79 5.04ZM43.88 4.83L43.88 4.83Q45.64 4.83 46.63 5.66L46.63 5.66L46.63 5.66Q47.63 6.50 47.63 8.06L47.63 8.06L47.63 8.06Q47.63 8.81 47.40 9.66L47.40 9.66L47.40 9.66Q46.98 11.23 46.10 12.32L46.10 12.32L46.10 12.32Q45.22 13.41 44.00 13.97L44.00 13.97L44.00 13.97Q42.78 14.53 41.36 14.53L41.36 14.53L41.36 14.53Q39.61 14.53 38.61 13.70L38.61 13.70L38.61 13.70Q37.62 12.87 37.62 11.30L37.62 11.30L37.62 11.30Q37.62 10.58 37.86 9.66L37.86 9.66L37.86 9.66Q38.26 8.11 39.14 7.02L39.14 7.02L39.14 7.02Q40.01 5.94 41.22 5.38L41.22 5.38L41.22 5.38Q42.43 4.83 43.88 4.83L43.88 4.83ZM43.62 6.20L43.62 6.20Q43.20 6.20 42.87 6.54L42.87 6.54L42.87 6.54Q42.53 6.87 42.20 7.64L42.20 7.64L42.20 7.64Q41.87 8.40 41.50 9.76L41.50 9.76L41.50 9.76Q40.94 11.72 40.94 12.46L40.94 12.46L40.94 12.46Q40.94 12.89 41.09 13.09L41.09 13.09L41.09 13.09Q41.24 13.29 41.58 13.29L41.58 13.29L41.58 13.29Q42.00 13.29 42.34 12.94L42.34 12.94L42.34 12.94Q42.67 12.60 42.99 11.84L42.99 11.84L42.99 11.84Q43.32 11.09 43.71 9.76L43.71 9.76L43.71 9.76Q44.25 7.83 44.25 7.04L44.25 7.04L44.25 7.04Q44.25 6.59 44.10 6.40L44.10 6.40L44.10 6.40Q43.95 6.20 43.62 6.20L43.62 6.20ZM57.23 4.98L57.23 4.98Q57.85 4.98 58.24 5.38L58.24 5.38L58.24 5.38Q58.63 5.78 58.63 6.40L58.63 6.40L58.63 6.40Q58.63 6.48 58.60 6.71L58.60 6.71L58.60 6.71Q58.49 7.38 58.08 7.70L58.08 7.70L58.08 7.70Q57.67 8.02 57.12 8.02L57.12 8.02L57.12 8.02Q56.76 8.02 56.50 7.91L56.50 7.91L56.50 7.91Q56.25 7.80 56.03 7.53L56.03 7.53L53.72 10.54L53.07 12.71L53.07 12.71Q53.05 12.80 53.05 12.94L53.05 12.94L53.05 12.94Q53.05 13.13 53.14 13.27L53.14 13.27L53.14 13.27Q53.24 13.40 53.42 13.55L53.42 13.55L53.42 13.55Q53.58 13.69 53.65 13.79L53.65 13.79L53.65 13.79Q53.72 13.89 53.68 14.01L53.68 14.01L53.68 14.01Q53.62 14.21 53.40 14.29L53.40 14.29L53.40 14.29Q53.19 14.36 52.81 14.36L52.81 14.36L49.28 14.36L49.28 14.36Q48.92 14.36 48.74 14.23L48.74 14.23L48.74 14.23Q48.57 14.10 48.62 13.86L48.62 13.86L48.62 13.86Q48.65 13.73 48.73 13.66L48.73 13.66L48.73 13.66Q48.80 13.58 48.97 13.47L48.97 13.47L48.97 13.47Q49.18 13.34 49.32 13.18L49.32 13.18L49.32 13.18Q49.46 13.02 49.56 12.71L49.56 12.71L50.20 10.53L48.92 6.86L48.92 6.86Q48.78 6.45 48.59 6.24L48.59 6.24L48.59 6.24Q48.40 6.02 48.15 5.81L48.15 5.81L48.15 5.81Q47.99 5.70 47.92 5.61L47.92 5.61L47.92 5.61Q47.85 5.53 47.85 5.42L47.85 5.42L47.85 5.42Q47.85 5.25 48.00 5.15L48.00 5.15L48.00 5.15Q48.15 5.04 48.43 5.04L48.43 5.04L52.16 5.04L52.16 5.04Q52.65 5.04 52.84 5.12L52.84 5.12L52.84 5.12Q53.02 5.21 53.03 5.42L53.03 5.42L53.03 5.42Q53.03 5.54 52.98 5.63L52.98 5.63L52.98 5.63Q52.92 5.73 52.81 5.85L52.81 5.85L52.81 5.85Q52.68 6.02 52.62 6.13L52.62 6.13L52.62 6.13Q52.56 6.23 52.56 6.38L52.56 6.38L52.56 6.38Q52.56 6.43 52.58 6.57L52.58 6.57L53.23 9.03L55.01 6.50L55.01 6.50Q55.58 5.68 56.09 5.33L56.09 5.33L56.09 5.33Q56.60 4.98 57.23 4.98L57.23 4.98Z"></path></g><defs data-v-fde0c5aa=""><!----></defs><g data-v-fde0c5aa="" id="0c557661-1c20-49ff-a6bd-fb86eb115303" stroke="none" fill="#1C484D" transform="matrix(1.475241586543126,0,0,1.475241586543126,102.79227010993247,72.40126903954466)"><path d="M21 57.54a14.275 14.275 0 0 1-2-1.096V39.556a14.275 14.275 0 0 1 2-1.096v-2.143c-3.804 1.458-6.89 4.227-8.723 7.893l-.777 1.553-.777-1.554a16.162 16.162 0 0 0-9.407-8.158l-.633 1.897c.811.27 1.581.617 2.316 1.016v18.07c-.736.399-1.506.746-2.316 1.016l.633 1.897a16.168 16.168 0 0 0 9.407-8.158l.777-1.554.777 1.554c1.891 3.78 5.11 6.613 9.078 8.031A4.961 4.961 0 0 1 21 58v-.46zM5 55.712V40.288a14.091 14.091 0 0 1 2 1.923V53.79a14.084 14.084 0 0 1-2 1.922zm4-4.948v-5.528L10.382 48 9 50.764zm5.066.132L12.618 48l1.448-2.896A14.257 14.257 0 0 1 17 41.134v13.733a14.276 14.276 0 0 1-2.934-3.971zM48.207 22.207l-.671.671a1.83 1.83 0 0 0 2.586 2.586L54.586 21 52 18.414l-.793.793-3.914-3.914.793-.793L43.5 9.914l-8.5 8.5V31h6v-9.414l3.293-3.293 3.914 3.914zM8 19.586L10.586 17l-4.464-4.464a1.83 1.83 0 0 0-2.586 2.586L8 19.586zM23 58c0 1.654 1.346 3 3 3s3-1.346 3-3v-9h-6v9zM23 33h6v14h-6zM54.05 8.536A3.22 3.22 0 0 0 55 6.243 3.247 3.247 0 0 0 51.757 3a3.22 3.22 0 0 0-2.293.95l-4.55 4.55 4.586 4.586 4.55-4.55zM35 58c0 1.654 1.346 3 3 3s3-1.346 3-3v-9h-6v9zM35 33h6v14h-6zM14.5 13.086L19.086 8.5l-4.55-4.55A3.22 3.22 0 0 0 12.243 3 3.247 3.247 0 0 0 9 6.243c0 .866.337 1.68.95 2.293l4.55 4.55zM15.914 14.5l.793.793-3.914 3.914-.793-.793L9.414 21l4.464 4.464a1.83 1.83 0 0 0 2.586-2.586l-.671-.671 3.914-3.914L23 21.586V31h6V18.414l-8.5-8.5-4.586 4.586zM56 19.586l4.464-4.464a1.83 1.83 0 0 0-2.586-2.586L53.414 17 56 19.586zM61 38.965a14.447 14.447 0 0 1 2.316-1.016l-.633-1.897a16.168 16.168 0 0 0-9.407 8.158l-.776 1.553-.777-1.554c-1.833-3.666-4.92-6.435-8.723-7.893v2.143c.701.312 1.366.682 2 1.096v16.887c-.634.414-1.299.784-2 1.096V58a4.97 4.97 0 0 1-.355 1.821c3.969-1.417 7.188-4.25 9.078-8.031l.777-1.554.777 1.554a16.162 16.162 0 0 0 9.407 8.158l.633-1.897a14.369 14.369 0 0 1-2.316-1.016v-18.07zM49.934 50.896A14.257 14.257 0 0 1 47 54.866V41.134a14.257 14.257 0 0 1 2.934 3.97L51.382 48l-1.448 2.896zM55 45.236v5.528L53.618 48 55 45.236zm2 8.554V42.21a14.091 14.091 0 0 1 2-1.923v15.425a14.084 14.084 0 0 1-2-1.922zM31 20h2v8h-2z"></path></g><!----></svg>