<?xml version="1.0" encoding="UTF-8" standalone="no" ?>
<!DOCTYPE svg PUBLIC "-//W3C//DTD SVG 1.1//EN" "http://www.w3.org/Graphics/SVG/1.1/DTD/svg11.dtd">
<svg xmlns="http://www.w3.org/2000/svg" xmlns:xlink="http://www.w3.org/1999/xlink" version="1.1" width="1080" height="1080" viewBox="0 0 1080 1080" xml:space="preserve" reserveAspectRatio="none">
<desc>Created with Fabric.js 5.2.4</desc>
<defs>
</defs>
<rect x="0" y="0" width="100%" height="100%" fill="transparent"></rect>
<g transform="matrix(1 0 0 1 540 540)" id="4790a210-f539-475a-8d42-cababff227bf"  >
</g>
<g transform="matrix(1 0 0 1 540 540)" id="ff24fd73-70b5-4edc-b0ad-78098303beec"  >
<rect style="stroke: none; stroke-width: 1; stroke-dasharray: none; stroke-linecap: butt; stroke-dashoffset: 0; stroke-linejoin: miter; stroke-miterlimit: 4; fill: rgb(255,255,255); fill-rule: nonzero; opacity: 1; visibility: hidden;" vector-effect="non-scaling-stroke"  x="-540" y="-540" rx="0" ry="0" width="1080" height="1080" />
</g>
<g transform="matrix(1 0 0 1 540 540)"  >
<g style="" vector-effect="non-scaling-stroke"   >
		<g transform="matrix(1 0 0 1 0 0)"  >
<rect style="stroke: none; stroke-width: 1; stroke-dasharray: none; stroke-linecap: butt; stroke-dashoffset: 0; stroke-linejoin: miter; stroke-miterlimit: 4; fill: rgb(163,188,139); fill-rule: nonzero; opacity: 1;" vector-effect="non-scaling-stroke"  x="-150" y="-150" rx="0" ry="0" width="300" height="300" />
</g>
		<g transform="matrix(4.41 0 0 4.41 -0.02 51.78)"  >
<path style="stroke: none; stroke-width: 1; stroke-dasharray: none; stroke-linecap: butt; stroke-dashoffset: 0; stroke-linejoin: miter; stroke-miterlimit: 4; fill: rgb(28,72,77); fill-rule: nonzero; opacity: 1;" vector-effect="non-scaling-stroke"  transform=" translate(-29.16, -9.68)" d="M 10.91 5.04 L 10.91 5.04 Q 11.48 5.04 11.48 5.4 L 11.48 5.4 L 11.48 5.4 Q 11.48 5.5 11.47 5.54 L 11.47 5.54 L 11.47 5.54 Q 11.42 5.68 11.34 5.76 L 11.34 5.76 L 11.34 5.76 Q 11.26 5.84 11.1 5.94 L 11.1 5.94 L 11.1 5.94 Q 10.89 6.06 10.75 6.22 L 10.75 6.22 L 10.75 6.22 Q 10.61 6.37 10.51 6.69 L 10.51 6.69 L 8.78 12.91 L 8.78 12.91 Q 8.54 13.75 8.18 14.08 L 8.18 14.08 L 8.18 14.08 Q 7.83 14.42 7.2 14.42 L 7.2 14.42 L 7.2 14.42 Q 6.64 14.42 6.27 14.09 L 6.27 14.09 L 6.27 14.09 Q 5.89 13.76 5.57 13.08 L 5.57 13.08 L 3.46 8.62 L 2.28 12.71 L 2.28 12.71 Q 2.24 12.89 2.24 13.03 L 2.24 13.03 L 2.24 13.03 Q 2.24 13.22 2.3 13.34 L 2.3 13.34 L 2.3 13.34 Q 2.37 13.45 2.48 13.58 L 2.48 13.58 L 2.48 13.58 Q 2.63 13.76 2.63 13.89 L 2.63 13.89 L 2.63 13.89 Q 2.63 13.97 2.62 14.01 L 2.62 14.01 L 2.62 14.01 Q 2.56 14.21 2.37 14.29 L 2.37 14.29 L 2.37 14.29 Q 2.17 14.36 1.78 14.36 L 1.78 14.36 L 0.25 14.36 L 0.25 14.36 Q -0.32 14.36 -0.32 14 L -0.32 14 L -0.32 14 Q -0.32 13.9 -0.31 13.86 L -0.31 13.86 L -0.31 13.86 Q -0.27 13.72 -0.18 13.64 L -0.18 13.64 L -0.18 13.64 Q -0.1 13.57 0.06 13.47 L 0.06 13.47 L 0.06 13.47 Q 0.27 13.34 0.41 13.19 L 0.41 13.19 L 0.41 13.19 Q 0.55 13.03 0.64 12.71 L 0.64 12.71 L 2.42 6.43 L 2.2 5.96 L 2.2 5.96 Q 2.06 5.68 2.06 5.47 L 2.06 5.47 L 2.06 5.47 Q 2.06 5.04 2.62 5.04 L 2.62 5.04 L 4.69 5.04 L 4.69 5.04 Q 5.14 5.04 5.37 5.24 L 5.37 5.24 L 5.37 5.24 Q 5.6 5.45 5.87 5.96 L 5.87 5.96 L 7.91 10.07 L 8.88 6.69 L 8.88 6.69 Q 8.92 6.5 8.92 6.37 L 8.92 6.37 L 8.92 6.37 Q 8.92 6.19 8.86 6.07 L 8.86 6.07 L 8.86 6.07 Q 8.79 5.95 8.68 5.82 L 8.68 5.82 L 8.68 5.82 Q 8.53 5.64 8.53 5.52 L 8.53 5.52 L 8.53 5.52 Q 8.53 5.43 8.54 5.39 L 8.54 5.39 L 8.54 5.39 Q 8.6 5.19 8.79 5.12 L 8.79 5.12 L 8.79 5.12 Q 8.99 5.04 9.38 5.04 L 9.38 5.04 L 10.91 5.04 Z M 16.81 5.04 L 16.81 5.04 Q 17.11 5.04 17.27 5.13 L 17.27 5.13 L 17.27 5.13 Q 17.43 5.22 17.43 5.39 L 17.43 5.39 L 17.43 5.39 Q 17.43 5.46 17.39 5.57 L 17.39 5.57 L 17.39 5.57 Q 17.35 5.67 17.27 5.75 L 17.27 5.75 L 17.27 5.75 Q 17.19 5.82 17.13 5.86 L 17.13 5.86 L 17.13 5.86 Q 17.07 5.89 17.04 5.92 L 17.04 5.92 L 17.04 5.92 Q 16.81 6.05 16.67 6.2 L 16.67 6.2 L 16.67 6.2 Q 16.53 6.36 16.44 6.68 L 16.44 6.68 L 14.74 12.71 L 14.74 12.71 Q 14.69 12.89 14.69 13.06 L 14.69 13.06 L 14.69 13.06 Q 14.69 13.23 14.74 13.34 L 14.74 13.34 L 14.74 13.34 Q 14.78 13.45 14.88 13.58 L 14.88 13.58 L 14.88 13.58 Q 15.01 13.76 15.01 13.87 L 15.01 13.87 L 15.01 13.87 Q 15.01 13.9 14.98 14.01 L 14.98 14.01 L 14.98 14.01 Q 14.92 14.21 14.73 14.29 L 14.73 14.29 L 14.73 14.29 Q 14.53 14.36 14.14 14.36 L 14.14 14.36 L 10.85 14.36 L 10.85 14.36 Q 10.56 14.36 10.4 14.27 L 10.4 14.27 L 10.4 14.27 Q 10.23 14.17 10.23 14 L 10.23 14 L 10.23 14 Q 10.23 13.92 10.28 13.82 L 10.28 13.82 L 10.28 13.82 Q 10.33 13.66 10.46 13.58 L 10.46 13.58 L 10.46 13.58 Q 10.58 13.5 10.61 13.48 L 10.61 13.48 L 10.61 13.48 Q 10.84 13.34 10.98 13.2 L 10.98 13.2 L 10.98 13.2 Q 11.12 13.05 11.21 12.71 L 11.21 12.71 L 12.92 6.68 L 12.92 6.68 Q 12.98 6.5 12.98 6.33 L 12.98 6.33 L 12.98 6.33 Q 12.98 6.17 12.93 6.07 L 12.93 6.07 L 12.93 6.07 Q 12.88 5.96 12.8 5.82 L 12.8 5.82 L 12.8 5.82 Q 12.67 5.64 12.67 5.53 L 12.67 5.53 L 12.67 5.53 Q 12.67 5.49 12.7 5.38 L 12.7 5.38 L 12.7 5.38 Q 12.75 5.19 12.94 5.12 L 12.94 5.12 L 12.94 5.12 Q 13.13 5.04 13.52 5.04 L 13.52 5.04 L 16.81 5.04 Z M 26.95 7.88 L 26.95 7.88 Q 26.73 8.69 26.11 9.15 L 26.11 9.15 L 26.11 9.15 Q 25.49 9.6 24.56 9.72 L 24.56 9.72 L 24.56 9.72 Q 25.23 9.77 25.56 10.11 L 25.56 10.11 L 25.56 10.11 Q 25.9 10.44 25.9 10.99 L 25.9 10.99 L 25.9 10.99 Q 25.9 11.2 25.83 11.51 L 25.83 11.51 L 25.68 12.19 L 25.68 12.19 Q 25.65 12.33 25.65 12.39 L 25.65 12.39 L 25.65 12.39 Q 25.65 12.57 25.73 12.66 L 25.73 12.66 L 25.73 12.66 Q 25.82 12.75 25.97 12.75 L 25.97 12.75 L 25.97 12.75 Q 26.26 12.75 26.4 12.84 L 26.4 12.84 L 26.4 12.84 Q 26.53 12.92 26.49 13.15 L 26.49 13.15 L 26.49 13.15 Q 26.43 13.47 26.15 13.78 L 26.15 13.78 L 26.15 13.78 Q 25.87 14.08 25.36 14.29 L 25.36 14.29 L 25.36 14.29 Q 24.85 14.49 24.12 14.49 L 24.12 14.49 L 24.12 14.49 Q 23.2 14.49 22.65 14.08 L 22.65 14.08 L 22.65 14.08 Q 22.11 13.66 22.11 12.89 L 22.11 12.89 L 22.11 12.89 Q 22.11 12.6 22.19 12.26 L 22.19 12.26 L 22.41 11.37 L 22.41 11.37 Q 22.47 11.19 22.47 10.99 L 22.47 10.99 L 22.47 10.99 Q 22.47 10.67 22.25 10.53 L 22.25 10.53 L 22.25 10.53 Q 22.04 10.39 21.56 10.39 L 21.56 10.39 L 21.03 10.39 L 20.38 12.71 L 20.38 12.71 Q 20.36 12.8 20.36 12.92 L 20.36 12.92 L 20.36 12.92 Q 20.36 13.12 20.45 13.26 L 20.45 13.26 L 20.45 13.26 Q 20.55 13.4 20.72 13.55 L 20.72 13.55 L 20.72 13.55 Q 20.85 13.65 20.92 13.74 L 20.92 13.74 L 20.92 13.74 Q 20.99 13.83 20.99 13.93 L 20.99 13.93 L 20.99 13.93 Q 20.99 14.17 20.76 14.27 L 20.76 14.27 L 20.76 14.27 Q 20.54 14.36 20.1 14.36 L 20.1 14.36 L 16.59 14.36 L 16.59 14.36 Q 16.23 14.36 16.04 14.23 L 16.04 14.23 L 16.04 14.23 Q 15.86 14.1 15.92 13.86 L 15.92 13.86 L 15.92 13.86 Q 15.95 13.73 16.02 13.66 L 16.02 13.66 L 16.02 13.66 Q 16.1 13.58 16.25 13.48 L 16.25 13.48 L 16.25 13.48 Q 16.49 13.34 16.63 13.19 L 16.63 13.19 L 16.63 13.19 Q 16.77 13.03 16.86 12.71 L 16.86 12.71 L 18.56 6.68 L 18.56 6.68 Q 18.62 6.5 18.62 6.33 L 18.62 6.33 L 18.62 6.33 Q 18.62 6.17 18.57 6.07 L 18.57 6.07 L 18.57 6.07 Q 18.52 5.96 18.44 5.82 L 18.44 5.82 L 18.44 5.82 Q 18.31 5.64 18.31 5.53 L 18.31 5.53 L 18.31 5.53 Q 18.31 5.49 18.34 5.38 L 18.34 5.38 L 18.34 5.38 Q 18.4 5.19 18.59 5.12 L 18.59 5.12 L 18.59 5.12 Q 18.77 5.04 19.17 5.04 L 19.17 5.04 L 23.86 5.04 L 23.86 5.04 Q 24.82 5.04 25.54 5.33 L 25.54 5.33 L 25.54 5.33 Q 26.26 5.63 26.65 6.14 L 26.65 6.14 L 26.65 6.14 Q 27.03 6.65 27.03 7.29 L 27.03 7.29 L 27.03 7.29 Q 27.03 7.59 26.95 7.88 L 26.95 7.88 Z M 23.37 7.74 L 23.37 7.74 Q 23.44 7.42 23.44 7.25 L 23.44 7.25 L 23.44 7.25 Q 23.44 6.51 22.62 6.51 L 22.62 6.51 L 22.04 6.51 L 21.42 8.99 L 22.01 8.99 L 22.01 8.99 Q 22.55 8.99 22.87 8.72 L 22.87 8.72 L 22.87 8.72 Q 23.18 8.46 23.37 7.74 L 23.37 7.74 Z M 37.79 5.04 L 37.79 5.04 Q 38.36 5.04 38.36 5.4 L 38.36 5.4 L 38.36 5.4 Q 38.36 5.5 38.35 5.54 L 38.35 5.54 L 38.35 5.54 Q 38.3 5.68 38.22 5.76 L 38.22 5.76 L 38.22 5.76 Q 38.14 5.84 37.98 5.94 L 37.98 5.94 L 37.98 5.94 Q 37.77 6.06 37.63 6.22 L 37.63 6.22 L 37.63 6.22 Q 37.49 6.37 37.39 6.69 L 37.39 6.69 L 35.66 12.91 L 35.66 12.91 Q 35.42 13.75 35.06 14.08 L 35.06 14.08 L 35.06 14.08 Q 34.71 14.42 34.08 14.42 L 34.08 14.42 L 34.08 14.42 Q 33.52 14.42 33.15 14.09 L 33.15 14.09 L 33.15 14.09 Q 32.77 13.76 32.45 13.08 L 32.45 13.08 L 30.34 8.62 L 29.16 12.71 L 29.16 12.71 Q 29.12 12.89 29.12 13.03 L 29.12 13.03 L 29.12 13.03 Q 29.12 13.22 29.18 13.34 L 29.18 13.34 L 29.18 13.34 Q 29.25 13.45 29.36 13.58 L 29.36 13.58 L 29.36 13.58 Q 29.51 13.76 29.51 13.89 L 29.51 13.89 L 29.51 13.89 Q 29.51 13.97 29.5 14.01 L 29.5 14.01 L 29.5 14.01 Q 29.44 14.21 29.25 14.29 L 29.25 14.29 L 29.25 14.29 Q 29.05 14.36 28.66 14.36 L 28.66 14.36 L 27.13 14.36 L 27.13 14.36 Q 26.56 14.36 26.56 14 L 26.56 14 L 26.56 14 Q 26.56 13.9 26.57 13.86 L 26.57 13.86 L 26.57 13.86 Q 26.61 13.72 26.7 13.64 L 26.7 13.64 L 26.7 13.64 Q 26.78 13.57 26.94 13.47 L 26.94 13.47 L 26.94 13.47 Q 27.15 13.34 27.29 13.19 L 27.29 13.19 L 27.29 13.19 Q 27.43 13.03 27.52 12.71 L 27.52 12.71 L 29.3 6.43 L 29.08 5.96 L 29.08 5.96 Q 28.94 5.68 28.94 5.47 L 28.94 5.47 L 28.94 5.47 Q 28.94 5.04 29.5 5.04 L 29.5 5.04 L 31.57 5.04 L 31.57 5.04 Q 32.02 5.04 32.25 5.24 L 32.25 5.24 L 32.25 5.24 Q 32.48 5.45 32.75 5.96 L 32.75 5.96 L 34.79 10.07 L 35.76 6.69 L 35.76 6.69 Q 35.8 6.5 35.8 6.37 L 35.8 6.37 L 35.8 6.37 Q 35.8 6.19 35.73 6.07 L 35.73 6.07 L 35.73 6.07 Q 35.67 5.95 35.56 5.82 L 35.56 5.82 L 35.56 5.82 Q 35.41 5.64 35.41 5.52 L 35.41 5.52 L 35.41 5.52 Q 35.41 5.43 35.42 5.39 L 35.42 5.39 L 35.42 5.39 Q 35.48 5.19 35.67 5.12 L 35.67 5.12 L 35.67 5.12 Q 35.87 5.04 36.26 5.04 L 36.26 5.04 L 37.79 5.04 Z M 43.88 4.83 L 43.88 4.83 Q 45.64 4.83 46.63 5.66 L 46.63 5.66 L 46.63 5.66 Q 47.63 6.5 47.63 8.06 L 47.63 8.06 L 47.63 8.06 Q 47.63 8.81 47.4 9.66 L 47.4 9.66 L 47.4 9.66 Q 46.98 11.23 46.1 12.32 L 46.1 12.32 L 46.1 12.32 Q 45.22 13.41 44 13.97 L 44 13.97 L 44 13.97 Q 42.78 14.53 41.36 14.53 L 41.36 14.53 L 41.36 14.53 Q 39.61 14.53 38.61 13.7 L 38.61 13.7 L 38.61 13.7 Q 37.62 12.87 37.62 11.3 L 37.62 11.3 L 37.62 11.3 Q 37.62 10.58 37.86 9.66 L 37.86 9.66 L 37.86 9.66 Q 38.26 8.11 39.14 7.02 L 39.14 7.02 L 39.14 7.02 Q 40.01 5.94 41.22 5.38 L 41.22 5.38 L 41.22 5.38 Q 42.43 4.83 43.88 4.83 L 43.88 4.83 Z M 43.62 6.2 L 43.62 6.2 Q 43.2 6.2 42.87 6.54 L 42.87 6.54 L 42.87 6.54 Q 42.53 6.87 42.2 7.64 L 42.2 7.64 L 42.2 7.64 Q 41.87 8.4 41.5 9.76 L 41.5 9.76 L 41.5 9.76 Q 40.94 11.72 40.94 12.46 L 40.94 12.46 L 40.94 12.46 Q 40.94 12.89 41.09 13.09 L 41.09 13.09 L 41.09 13.09 Q 41.24 13.29 41.58 13.29 L 41.58 13.29 L 41.58 13.29 Q 42 13.29 42.34 12.94 L 42.34 12.94 L 42.34 12.94 Q 42.67 12.6 42.99 11.84 L 42.99 11.84 L 42.99 11.84 Q 43.32 11.09 43.71 9.76 L 43.71 9.76 L 43.71 9.76 Q 44.25 7.83 44.25 7.04 L 44.25 7.04 L 44.25 7.04 Q 44.25 6.59 44.1 6.4 L 44.1 6.4 L 44.1 6.4 Q 43.95 6.2 43.62 6.2 L 43.62 6.2 Z M 57.23 4.98 L 57.23 4.98 Q 57.85 4.98 58.24 5.38 L 58.24 5.38 L 58.24 5.38 Q 58.63 5.78 58.63 6.4 L 58.63 6.4 L 58.63 6.4 Q 58.63 6.48 58.6 6.71 L 58.6 6.71 L 58.6 6.71 Q 58.49 7.38 58.08 7.7 L 58.08 7.7 L 58.08 7.7 Q 57.67 8.02 57.12 8.02 L 57.12 8.02 L 57.12 8.02 Q 56.76 8.02 56.5 7.91 L 56.5 7.91 L 56.5 7.91 Q 56.25 7.8 56.03 7.53 L 56.03 7.53 L 53.72 10.54 L 53.07 12.71 L 53.07 12.71 Q 53.05 12.8 53.05 12.94 L 53.05 12.94 L 53.05 12.94 Q 53.05 13.13 53.14 13.27 L 53.14 13.27 L 53.14 13.27 Q 53.24 13.4 53.42 13.55 L 53.42 13.55 L 53.42 13.55 Q 53.58 13.69 53.65 13.79 L 53.65 13.79 L 53.65 13.79 Q 53.72 13.89 53.68 14.01 L 53.68 14.01 L 53.68 14.01 Q 53.62 14.21 53.4 14.29 L 53.4 14.29 L 53.4 14.29 Q 53.19 14.36 52.81 14.36 L 52.81 14.36 L 49.28 14.36 L 49.28 14.36 Q 48.92 14.36 48.74 14.23 L 48.74 14.23 L 48.74 14.23 Q 48.57 14.1 48.62 13.86 L 48.62 13.86 L 48.62 13.86 Q 48.65 13.73 48.73 13.66 L 48.73 13.66 L 48.73 13.66 Q 48.8 13.58 48.97 13.47 L 48.97 13.47 L 48.97 13.47 Q 49.18 13.34 49.32 13.18 L 49.32 13.18 L 49.32 13.18 Q 49.46 13.02 49.56 12.71 L 49.56 12.71 L 50.2 10.53 L 48.92 6.86 L 48.92 6.86 Q 48.78 6.45 48.59 6.24 L 48.59 6.24 L 48.59 6.24 Q 48.4 6.02 48.15 5.81 L 48.15 5.81 L 48.15 5.81 Q 47.99 5.7 47.92 5.61 L 47.92 5.61 L 47.92 5.61 Q 47.85 5.53 47.85 5.42 L 47.85 5.42 L 47.85 5.42 Q 47.85 5.25 48 5.15 L 48 5.15 L 48 5.15 Q 48.15 5.04 48.43 5.04 L 48.43 5.04 L 52.16 5.04 L 52.16 5.04 Q 52.65 5.04 52.84 5.12 L 52.84 5.12 L 52.84 5.12 Q 53.02 5.21 53.03 5.42 L 53.03 5.42 L 53.03 5.42 Q 53.03 5.54 52.98 5.63 L 52.98 5.63 L 52.98 5.63 Q 52.92 5.73 52.81 5.85 L 52.81 5.85 L 52.81 5.85 Q 52.68 6.02 52.62 6.13 L 52.62 6.13 L 52.62 6.13 Q 52.56 6.23 52.56 6.38 L 52.56 6.38 L 52.56 6.38 Q 52.56 6.43 52.58 6.57 L 52.58 6.57 L 53.23 9.03 L 55.01 6.5 L 55.01 6.5 Q 55.58 5.68 56.09 5.33 L 56.09 5.33 L 56.09 5.33 Q 56.6 4.98 57.23 4.98 L 57.23 4.98 Z" stroke-linecap="round" />
</g>
		<g transform="matrix(1.48 0 0 1.48 0.15 -30.25)"  >
<path style="stroke: none; stroke-width: 1; stroke-dasharray: none; stroke-linecap: butt; stroke-dashoffset: 0; stroke-linejoin: miter; stroke-miterlimit: 4; fill: rgb(28,72,77); fill-rule: nonzero; opacity: 1;" vector-effect="non-scaling-stroke"  transform=" translate(-32, -32)" d="M 21 57.54 C 20.305170162546133 57.228590911896035 19.636369663178044 56.86208823824232 19 56.444 L 19 39.556 C 19.636369663178044 39.13791176175767 20.30517016254613 38.77140908810396 21 38.459999999999994 L 21 36.31699999999999 C 17.196 37.77499999999999 14.11 40.544 12.277 44.209999999999994 L 11.5 45.76299999999999 L 10.723 44.20899999999999 C 8.802755082043625 40.34242222261956 5.415386789445909 37.4048065607707 1.315999999999999 36.05099999999999 L 0.6830000000000007 37.947999999999986 C 1.4940000000000007 38.21799999999999 2.2640000000000007 38.56499999999998 2.9990000000000006 38.963999999999984 L 2.9990000000000006 57.033999999999985 C 2.263000000000001 57.432999999999986 1.4930000000000005 57.77999999999999 0.6830000000000007 58.04999999999998 L 1.3160000000000007 59.94699999999998 C 5.415049846420367 58.59260046574966 8.802215752002258 55.65516031929095 10.722999999999999 51.78899999999997 L 11.5 50.23499999999998 L 12.277 51.78899999999998 C 14.168 55.56899999999998 17.387 58.40199999999998 21.354999999999997 59.81999999999998 C 21.123332208340482 59.24103675839181 21.002895465556758 58.62358641510623 21 58 L 21 57.54 z M 5 55.712 L 5 40.288 C 5.728303418190788 40.86164616706537 6.398216629576192 41.50576771981243 6.999999999999998 42.211 L 7 53.79 C 6.398200240347506 54.49491532181622 5.728285416353266 55.13870346767469 5 55.711999999999996 z M 9 50.764 L 9 45.236000000000004 L 10.382 48 L 9 50.764 z M 14.065999999999999 50.896 L 12.618 48 L 14.066 45.104 C 14.805713038586589 43.62012848298783 15.798593545507067 42.276660312410364 17 41.13400000000001 L 17 54.867000000000004 C 15.798791631032508 53.723782664256134 14.805946402215799 52.38002383547932 14.065999999999999 50.896 z M 48.207 22.207 L 47.536 22.878 C 46.86910646036738 23.599662574288466 46.89117667747144 24.719187496614165 47.58599459042864 25.414005409571363 C 48.28081250338583 26.108823322528558 49.400337425711534 26.130893539632623 50.122 25.464 L 54.586 21 L 52 18.414 L 51.207 19.207 L 47.293 15.293000000000001 L 48.086 14.500000000000002 L 43.5 9.914 L 35 18.414 L 35 31 L 41 31 L 41 21.586 L 44.293 18.293 L 48.207 22.207 z M 8 19.586 L 10.586 17 L 6.122 12.536 C 5.400337425711535 11.869106460367357 4.280812503385824 11.891176677471414 3.5859945904286192 12.58599459042862 C 2.8911766774714147 13.280812503385823 2.8691064603673566 14.400337425711534 3.535999999999999 15.122 L 8 19.586 z M 23 58 C 23 59.653999999999996 24.346 61 26 61 C 27.654 61 29 59.653999999999996 29 58 L 29 49 L 23 49 L 23 58 z M 23 33 L 29 33 L 29 47 L 23 47 z M 54.05 8.536 C 54.66035668014897 7.929324380567128 55.00246945186822 7.103572185248979 55 6.243 C 54.99779606305621 4.452854251600526 53.54714574839947 3.002203936943791 51.757 3 C 50.89642781475102 2.997530548131779 50.07067561943287 3.33964331985103 49.464 3.950000000000001 L 44.914 8.5 L 49.5 13.086 L 54.05 8.536000000000001 z M 35 58 C 35 59.653999999999996 36.346000000000004 61 38 61 C 39.653999999999996 61 41 59.653999999999996 41 58 L 41 49 L 35 49 L 35 58 z M 35 33 L 41 33 L 41 47 L 35 47 z M 14.5 13.086 L 19.086 8.5 L 14.535999999999998 3.95 C 13.929324380567126 3.33964331985103 13.103572185248979 2.997530548131779 12.243 2.9999999999999996 C 10.452854251600527 3.0022039369437934 9.002203936943793 4.452854251600527 9 6.243 C 9 7.109 9.337 7.923 9.95 8.536000000000001 L 14.5 13.086000000000002 z M 15.914 14.5 L 16.707 15.293 L 12.793000000000001 19.207 L 12.000000000000002 18.414 L 9.414 21 L 13.878 25.464 C 14.599662574288468 26.130893539632623 15.719187496614165 26.10882332252856 16.414005409571363 25.414005409571363 C 17.108823322528558 24.719187496614165 17.130893539632623 23.599662574288466 16.464 22.878 L 15.793 22.207 L 19.707 18.293 L 23 21.586 L 23 31 L 29 31 L 29 18.414 L 20.5 9.914000000000001 L 15.914 14.500000000000002 z M 56 19.586 L 60.464 15.121999999999998 C 61.13089353963264 14.400337425711532 61.10882332252857 13.280812503385826 60.414005409571374 12.585994590428625 C 59.719187496614175 11.891176677471424 58.599662574288466 11.869106460367362 57.878 12.535999999999998 L 53.414 17 L 56 19.586 z M 61 38.965 C 61.74081564423462 38.559282425702555 62.51578427682648 38.219313457346196 63.315999999999995 37.949000000000005 L 62.683 36.05200000000001 C 58.583950153579636 37.406399534250326 55.19678424799773 40.343839680709046 53.275999999999996 44.21000000000002 L 52.49999999999999 45.763000000000005 L 51.72299999999999 44.209 C 49.88999999999999 40.543000000000006 46.80299999999999 37.774 42.99999999999999 36.316 L 42.99999999999999 38.459 C 43.70099999999999 38.771 44.36599999999999 39.141000000000005 44.99999999999999 39.55500000000001 L 44.99999999999999 56.44200000000001 C 44.36599999999999 56.85600000000001 43.70099999999999 57.226000000000006 42.99999999999999 57.53800000000001 L 42.99999999999999 58 C 42.99701523097877 58.62390173517959 42.876583976453965 59.24166318444624 42.644999999999996 59.821 C 46.614 58.403999999999996 49.833 55.571 51.723 51.79 L 52.5 50.236 L 53.277 51.79 C 55.197244917956375 55.656577777380434 58.58461321055409 58.59419343922929 62.684 59.94800000000001 L 63.317 58.051 C 62.51663864974811 57.781062597006034 61.74163757423726 57.44107939635015 61.00099999999999 57.035 L 61.001 38.965 z M 49.934 50.896 C 49.19428696141341 52.37987151701218 48.20140645449293 53.72333968758964 47 54.866 L 47 41.134 C 48.20140645449293 42.27666031241036 49.194286961413404 43.62012848298782 49.934 45.10399999999999 L 51.382 48 L 49.934 50.896 z M 55 45.236 L 55 50.763999999999996 L 53.618 48 L 55 45.236 z M 57 53.79 L 57 42.21 C 57.6017833704238 41.50476771981244 58.2716965818092 40.860646167065376 58.99999999999999 40.287000000000006 L 59 55.712 C 58.271714583646734 55.138703467674695 57.60179975965249 54.49491532181624 57 53.790000000000006 z M 31 20 L 33 20 L 33 28 L 31 28 z" stroke-linecap="round" />
</g>
</g>
</g>
<g transform="matrix(1 0 0 1 540 635.12)" style="" id="2036c751-f5ef-450a-b039-c149a8e36b7a"  >
		<text xml:space="preserve" font-family="Lato" font-size="12" font-style="normal" font-weight="100" style="stroke: none; stroke-width: 1; stroke-dasharray: none; stroke-linecap: butt; stroke-dashoffset: 0; stroke-linejoin: miter; stroke-miterlimit: 4; fill: rgb(0,0,0); fill-rule: nonzero; opacity: 1; white-space: pre;" ><tspan x="-94.72" y="3.77" >Faster Detection, Effective Treatment</tspan></text>
</g>
</svg>